<?xml version="1.0" encoding="UTF-8"?>
<svg id="Layer_2" data-name="Layer 2" xmlns="http://www.w3.org/2000/svg" viewBox="0 0 42.14 31.33">
  <defs>
    <style>
      .cls-1 {
        fill: #7e5e45;
      }
    </style>
  </defs>
  <g id="Layer_1-2" data-name="Layer 1">
    <path class="cls-1" d="m18.44,13.93c.1-.19.19-.39.27-.59s.16-.41.22-.61c.06-.19.11-.38.14-.58.03-.16.04-.33.03-.49,0-.03,0-.06,0-.1,0-.03,0-.05-.01-.07s0-.03,0-.04,0,0,0,0c0,0,0,0,0,0h0s.01.01.01.01h.01s0,.02.02.02c0,0,.01.01.02.02,0,0,.02,0,.02.01,0,0,.02,0,.03.01,0,0,.02,0,.03,0,0,0,.02,0,.02.01,0,0,.01,0,.02.01,0,0,.02,0,.03,0h.03s.02,0,.02,0h.01s0,0,0,0h.02s0,0,0,0h-.01s-.01,0-.02,0c-.01,0-.03,0-.04,0h-.09s-.04,0-.06,0h-.07s-.07,0-.07,0c-.02,0-.05,0-.07.01s-.05.01-.07.02-.05,0-.07.02l-.08.02-.08.02-.08.02c-.22.07-.44.15-.65.25-.22.1-.43.21-.63.33-.2.12-.4.25-.59.4-.18.14-.36.28-.52.44-.16.14-.3.3-.43.47-.13.16-.24.33-.34.52-.1.18-.18.36-.24.56-.07.19-.12.39-.15.59-.03.19-.05.39-.05.59,0,.19.02.39.05.58.03.19.09.37.16.54.07.17.16.33.27.48.11.15.23.28.37.4.15.12.31.22.49.3.19.09.39.16.59.21.23.06.46.1.69.13.25.02.51.03.77.03s.54-.02.81-.05.55-.07.83-.12.55-.11.82-.19.54-.15.81-.24.53-.19.79-.29.51-.21.76-.33.49-.24.72-.37.45-.27.66-.41.41-.29.6-.45.37-.32.54-.48.33-.34.48-.52c.15-.18.29-.37.41-.56.13-.19.24-.38.35-.59.11-.2.2-.4.29-.6.08-.2.16-.41.22-.62.12-.41.2-.83.24-1.26.04-.42.02-.84-.04-1.26-.06-.41-.17-.82-.33-1.2-.17-.39-.38-.76-.65-1.09-.07-.08-.14-.17-.21-.25s-.15-.16-.23-.23c-.08-.08-.16-.15-.24-.22s-.17-.14-.26-.21l-.56-.39-.64-.32c-.22-.1-.45-.18-.69-.26s-.48-.15-.73-.21c-.25-.06-.51-.11-.77-.15s-.53-.07-.8-.1c-.27-.03-.54-.04-.82-.05s-.55,0-.83,0c-.28.01-.55.03-.83.06s-.55.06-.83.1c-.27.04-.55.08-.82.14-.27.05-.54.11-.81.18-.27.07-.53.14-.79.22s-.52.17-.77.26c-.5.18-.98.38-1.46.62-.45.22-.88.47-1.3.75-.39.26-.76.55-1.1.88-.32.3-.62.63-.88.99-.12.18-.24.35-.34.54-.11.18-.21.37-.29.56-.09.19-.17.38-.24.57-.07.19-.12.39-.17.59-.04.2-.08.4-.1.6-.03.2-.05.41-.06.61,0,.2,0,.41,0,.62s.03.41.06.62c.03.21.07.41.12.62s.1.41.16.61.13.41.21.61.17.4.27.6.21.39.32.58.23.38.36.57.26.37.4.55.29.36.45.53c.32.35.66.67,1.02.97.37.31.77.6,1.18.86.43.27.87.51,1.33.73.47.22.96.41,1.46.58,1.03.35,2.09.59,3.17.72,1.11.13,2.23.16,3.34.09,1.09-.07,2.18-.24,3.24-.52,1-.26,1.96-.63,2.88-1.12.42-.23.83-.49,1.21-.78.37-.28.72-.59,1.05-.92.32-.33.61-.68.87-1.05.26-.37.49-.76.69-1.16.2-.4.37-.82.51-1.25.14-.43.26-.86.34-1.3.09-.44.15-.89.2-1.35s.08-.92.1-1.38c0-.23.01-.45,0-.67,0-.22-.01-.45-.03-.67-.02-.22-.04-.44-.07-.66-.03-.22-.07-.44-.12-.66-.05-.22-.11-.43-.17-.65-.06-.21-.14-.43-.22-.64-.08-.21-.17-.42-.27-.63s-.2-.41-.32-.61c-.24-.41-.51-.8-.81-1.16-.31-.38-.65-.73-1.02-1.06-.38-.34-.79-.66-1.21-.94-.44-.3-.9-.57-1.38-.81-.49-.25-.99-.48-1.51-.67-.53-.2-1.08-.36-1.63-.5-.56-.14-1.13-.26-1.71-.35s-1.17-.16-1.76-.21c-.3-.02-.6-.04-.9-.05s-.6-.02-.9-.02c-.3,0-.6,0-.9.01-.3,0-.6.02-.9.04-.3.02-.6.04-.9.07s-.6.06-.89.1-.59.08-.87.14-.57.12-.85.2c-.07.02-.14.04-.21.05l-.21.05c-.07.02-.14.03-.21.05s-.14.04-.21.06l-.82.27-.41.13-.39.16-.79.33c-.25.12-.5.25-.75.37-.25.13-.49.26-.73.4-.24.14-.48.28-.71.42-.23.15-.45.3-.67.46-.44.31-.86.64-1.26.99-.4.35-.77.71-1.12,1.09-.35.38-.69.76-1,1.16-.31.4-.61.81-.88,1.22-.14.21-.27.42-.4.63-.13.21-.25.43-.37.64-.12.22-.24.44-.35.66s-.22.44-.33.67c-.11.22-.21.44-.3.67-.09.22-.18.45-.27.67-.08.23-.16.45-.23.68-.07.23-.14.46-.2.69-.11.46-.2.92-.26,1.39-.06.46-.08.93-.08,1.4,0,.47.05.93.12,1.39.08.47.19.92.34,1.37.08.22.16.45.25.67s.19.44.3.66.23.43.36.64c.13.21.28.42.43.62.04.05.07.1.11.15l.11.15c.04.05.07.1.11.15s.08.1.12.15l.53.58.26.29.3.27.6.53c.43.35.88.67,1.35.97.49.31.99.59,1.51.84.52.26,1.07.49,1.63.71s1.13.41,1.71.58c.29.09.59.17.89.24s.6.14.9.2c.3.06.61.12.91.18.3.05.61.11.92.15.31.04.62.07.93.11s.62.06.93.09c.31.02.62.04.93.06s.62.02.94.02h.93s.93-.04.93-.04c.15,0,.31-.01.46-.02s.31-.02.46-.03.31-.03.46-.04l.46-.04c.15-.01.3-.03.46-.05s.3-.04.45-.07l.45-.07c.15-.02.3-.05.45-.07s.31-.05.46-.08.3-.06.45-.08.3-.06.44-.09.29-.06.44-.1c.29-.07.59-.14.88-.22.29-.08.58-.15.86-.23.29-.08.57-.17.85-.26.28-.09.56-.18.84-.28.28-.1.55-.2.82-.3.27-.1.53-.21.79-.33.26-.11.52-.23.77-.35.25-.12.51-.24.75-.36l.71-.4.36-.2.33-.22.66-.44.6-.48c.11-.08.21-.16.31-.24.1-.08.19-.17.28-.25s.18-.17.27-.26.18-.18.27-.26.17-.18.25-.27.16-.18.23-.28l.23-.28c.08-.09.15-.19.23-.28.06-.1.12-.2.19-.3s.13-.2.19-.3.13-.2.19-.3.12-.2.18-.3l.32-.62.26-.64c.08-.21.15-.43.21-.65.06-.22.12-.44.17-.66.05-.22.09-.44.13-.67s.06-.45.08-.68c.03-.45.04-.91.01-1.37-.02-.46-.08-.92-.16-1.37-.08-.46-.18-.92-.31-1.37-.13-.46-.29-.91-.46-1.36l1.03-.32c.33.43.64.88.91,1.35.27.46.5.94.71,1.43.2.49.36.99.49,1.5.13.51.22,1.02.28,1.55.06.53.07,1.06.03,1.58-.03.54-.11,1.07-.23,1.59-.12.54-.29,1.06-.5,1.57-.22.53-.47,1.04-.77,1.52-.09.12-.17.24-.26.36s-.17.24-.25.36-.17.24-.26.36-.18.23-.29.35-.21.23-.31.34-.2.23-.31.34-.21.22-.32.33-.23.21-.35.32l-.18.16-.18.16-.18.16c-.06.05-.12.1-.18.15l-.78.57-.4.28-.42.26-.85.51c-.59.32-1.19.62-1.81.89s-1.26.52-1.91.74c-.65.22-1.32.42-1.99.6-.68.18-1.36.33-2.05.45-.17.03-.34.06-.52.09s-.35.06-.52.09-.35.05-.52.08-.34.05-.51.07c-.18.01-.36.03-.54.05s-.36.03-.54.05-.36.03-.54.04-.36.02-.54.03-.36.01-.54.02-.36.01-.54.02-.36,0-.54,0-.36,0-.53-.02l-1.07-.04-1.06-.09c-.35-.03-.7-.07-1.05-.11-.35-.04-.69-.09-1.04-.15-.34-.06-.69-.12-1.03-.18s-.68-.13-1.02-.2c-.33-.08-.67-.16-1-.25-.33-.09-.66-.18-.98-.28-.33-.1-.65-.2-.97-.3-.32-.11-.63-.22-.94-.34l-.93-.35c-.08-.03-.15-.06-.23-.1-.08-.03-.15-.07-.22-.1l-.22-.1-.22-.1c-.15-.06-.3-.13-.45-.2s-.29-.14-.43-.22-.29-.15-.42-.23-.28-.15-.42-.23c-.07-.04-.14-.07-.21-.11-.07-.04-.14-.08-.21-.12-.07-.04-.14-.08-.2-.12-.07-.04-.13-.09-.2-.13l-.79-.5c-.12-.09-.25-.18-.37-.27s-.25-.18-.37-.28c-.12-.09-.24-.19-.36-.28-.12-.09-.24-.19-.35-.29-.45-.38-.87-.79-1.27-1.23-.38-.42-.74-.86-1.07-1.33-.31-.45-.59-.92-.84-1.42-.46-.94-.77-1.96-.92-3-.07-.51-.1-1.02-.1-1.53,0-.51.05-1.02.12-1.52.07-.5.17-1,.3-1.49.06-.25.14-.49.21-.73s.16-.48.25-.72c.09-.24.19-.48.29-.71.1-.24.21-.47.32-.7.11-.23.23-.46.35-.69.12-.23.24-.45.37-.68.13-.23.26-.45.39-.67.13-.22.28-.45.42-.67.15-.22.3-.44.45-.65s.32-.43.49-.64.34-.42.52-.62c.18-.21.36-.41.55-.61.19-.2.38-.4.58-.59.2-.19.41-.39.62-.57.21-.19.43-.37.65-.55.22-.18.45-.36.69-.53.23-.18.47-.34.72-.51s.5-.32.76-.47c.26-.15.52-.3.79-.44.27-.14.54-.28.82-.41l.86-.37.43-.18.45-.15.9-.3c.08-.02.15-.05.23-.07s.15-.04.23-.06l.23-.06c.08-.02.16-.04.23-.06s.16-.04.23-.06l.23-.06c.08-.02.16-.04.24-.06s.16-.04.25-.05.16-.03.24-.05l.25-.04.24-.04.24-.04c.16-.02.32-.04.48-.06s.32-.04.48-.06.32-.04.48-.05c.16-.02.32-.03.49-.04.32-.02.65-.04.97-.06.32-.01.65-.03.98-.03.33,0,.65,0,.98,0,.33,0,.65.02.98.04.65.04,1.31.1,1.96.2.65.09,1.3.21,1.93.36.63.15,1.25.32,1.87.53.6.21,1.19.45,1.76.73.07.04.14.07.21.1l.21.1c.07.03.14.07.21.1s.14.07.2.11l.79.47.1.06.1.06.1.06s.06.04.1.06l.36.26c.06.04.12.09.18.13s.12.09.18.13.12.09.18.13.11.09.17.14c.23.19.45.38.66.58.21.2.41.41.6.62.19.21.37.43.55.64s.34.44.5.67c.16.23.31.46.45.69s.27.47.39.71c.12.24.23.48.33.72.1.24.19.49.28.73.09.25.17.49.24.74.07.25.13.5.19.75.06.25.1.5.14.76s.07.51.1.76c.05.49.09.99.1,1.49s.02,1.02-.01,1.54c-.03.53-.09,1.05-.18,1.57-.1.54-.23,1.07-.41,1.58-.09.26-.19.53-.31.79s-.24.52-.39.78c-.14.26-.3.51-.47.77-.17.25-.35.5-.55.75-.2.25-.41.49-.63.72-.23.23-.47.46-.72.68s-.52.43-.8.63c-.28.2-.57.4-.86.59s-.61.36-.92.53c-.32.16-.65.32-.98.46s-.68.27-1.02.4-.7.24-1.05.34-.72.2-1.08.29c-.36.09-.73.16-1.1.23s-.74.12-1.12.16-.75.08-1.13.1c-.38.03-.76.04-1.14.05-.38,0-.76,0-1.14,0-.38-.01-.76-.03-1.13-.06-.38-.03-.75-.07-1.13-.12-.19-.02-.37-.04-.56-.07s-.37-.06-.56-.09-.37-.07-.55-.11l-.55-.11c-.09-.02-.18-.04-.27-.07-.09-.02-.18-.05-.27-.07l-.27-.07-.27-.07c-.09-.02-.18-.05-.27-.07-.09-.03-.18-.05-.26-.08-.09-.03-.17-.06-.26-.09s-.17-.06-.26-.09c-.68-.23-1.35-.51-2-.83-.63-.31-1.23-.66-1.81-1.05-.56-.37-1.09-.78-1.59-1.22-.48-.42-.93-.87-1.34-1.36-.4-.46-.76-.95-1.08-1.47-.31-.49-.58-1.01-.81-1.54-.22-.52-.4-1.06-.54-1.61-.13-.54-.23-1.08-.27-1.63-.02-.27-.03-.55-.03-.83,0-.27.02-.55.05-.83.03-.28.07-.55.13-.82.06-.27.12-.55.2-.82.08-.27.18-.54.29-.8.11-.27.24-.53.38-.78.14-.26.29-.51.46-.76.17-.25.35-.49.54-.73l.62-.7c.06-.06.11-.11.17-.16s.12-.11.18-.16l.18-.16c.06-.05.12-.11.18-.16s.12-.11.18-.16.13-.1.19-.15.13-.1.2-.15.13-.09.2-.14.13-.09.2-.14.13-.09.2-.14.14-.09.21-.14.14-.09.21-.13c.28-.18.57-.34.86-.49s.6-.3.91-.43c.31-.14.62-.26.94-.38.32-.12.64-.23.96-.33.32-.11.65-.2.98-.29.33-.09.67-.17,1-.24.34-.07.68-.13,1.02-.19.34-.05.69-.1,1.04-.14.35-.04.7-.07,1.05-.09s.71-.03,1.06-.04c.35,0,.71,0,1.07.03.36.02.71.05,1.07.1.35.04.71.1,1.06.16s.7.15,1.05.23.69.2,1.02.32.66.25.98.4l.91.49c.07.05.14.09.21.14.07.05.14.1.2.15l.2.15.2.15c.13.1.25.21.37.32s.23.22.34.33c.11.11.21.23.31.35.1.12.2.24.29.36.34.47.62.98.84,1.52.2.51.34,1.04.41,1.58.07.53.08,1.07.02,1.6-.05.53-.16,1.06-.33,1.57-.08.26-.18.52-.29.77-.11.25-.23.5-.37.75-.14.25-.29.49-.45.73-.16.24-.34.47-.53.7-.19.23-.4.46-.61.67-.22.22-.45.43-.7.63-.25.2-.51.4-.78.58-.27.18-.55.36-.84.52-.29.16-.58.31-.89.46-.3.14-.61.28-.93.41-.32.13-.64.25-.97.36-.33.11-.66.21-1,.3-.34.09-.69.18-1.04.25s-.72.13-1.09.17-.75.07-1.14.08-.78,0-1.18-.03c-.2-.02-.4-.05-.6-.08s-.4-.07-.6-.12-.4-.1-.59-.17c-.2-.07-.39-.14-.58-.23-.05-.02-.09-.04-.14-.06-.05-.02-.09-.05-.13-.07s-.09-.05-.13-.08-.09-.05-.13-.08l-.13-.08s-.09-.05-.13-.08-.08-.06-.12-.08-.08-.06-.11-.09-.08-.06-.11-.09-.07-.06-.11-.09-.07-.06-.1-.09-.07-.06-.1-.1-.07-.06-.1-.1-.06-.07-.09-.1-.06-.07-.09-.1-.05-.07-.08-.1c-.2-.26-.37-.55-.51-.85-.13-.28-.23-.57-.29-.87-.06-.29-.1-.58-.11-.87,0-.29,0-.58.05-.86.02-.14.05-.28.08-.43.03-.14.07-.28.11-.42.04-.14.09-.28.15-.42.05-.14.11-.27.18-.41.06-.14.14-.27.22-.41s.17-.27.26-.4.19-.26.3-.38.21-.24.33-.36c.23-.23.47-.45.73-.66.26-.21.53-.41.81-.59.29-.19.6-.36.91-.52.33-.17.67-.32,1.02-.45l.14-.05s.09-.03.14-.05c.05-.02.1-.03.15-.05.05-.01.1-.03.15-.04s.1-.03.15-.04c.05-.01.11-.03.16-.04s.11-.02.17-.04c.06-.01.11-.02.17-.03.05-.01.11-.02.17-.03s.13-.02.19-.02.13-.01.2-.02h.2s.22-.01.22-.01c.07,0,.15,0,.22,0s.15.01.24.02.17.02.25.04c.04,0,.08.01.13.02s.08.02.13.03.09.02.13.04.09.03.13.05l.13.05s.09.03.13.05.08.04.13.06c.04.02.08.04.11.07.04.02.08.05.11.07s.07.05.11.08c.04.03.07.05.11.08.03.03.07.05.1.08.03.03.05.05.08.08.03.03.05.05.07.08s.05.05.07.08.05.06.07.08c.08.1.14.21.21.32.1.18.18.38.23.58.02.09.04.18.05.26.02.16.04.32.04.49,0,.15,0,.3,0,.45-.01.15-.03.29-.05.43s-.04.28-.07.42-.06.27-.09.4-.07.26-.1.4-.08.26-.12.4-.09.27-.14.41l-3.5-.88Z"/>
  </g>
</svg>