<svg xmlns="http://www.w3.org/2000/svg" width="15.659" height="20.607" viewBox="0 0 15.659 20.607"><defs><style>.a{fill:#c4a892;}.b{fill:#889830;}</style></defs><g transform="translate(-4.681 8.467) rotate(-39)"><path class="a" d="M9.386,12.3a8.092,8.092,0,0,0-.336-4.712c-.245-.474-.626-.883-.916-1.336-.6-.876-1.232-1.871-1.8-2.775A7.843,7.843,0,0,0,4.971,1.79,5.386,5.386,0,0,0,.017.2L0,.112A5.537,5.537,0,0,1,4.241.949,9.6,9.6,0,0,1,5.871,2.455c.475.58.841,1.217,1.26,1.817s.836,1.2,1.271,1.79A7.588,7.588,0,0,1,9.634,7.935a6.979,6.979,0,0,1,.2,4.466l-.453-.1" transform="matrix(0.208, 0.978, -0.978, 0.208, 12.13, 4.859)"/><path class="b" d="M10.572,4.167c.058-1.047-.256-2.332-1.318-2.722A8.267,8.267,0,0,0,7.579,1.2C6.984,1.133,6.4,1.035,5.831.983A5.861,5.861,0,0,0,.1,4L.048,3.957a2.6,2.6,0,0,1,3.07-.676A5.98,5.98,0,0,1,5.041,4.849c1.141,2.165,3.343,3.529,5.184,1.243l.359.293A4.148,4.148,0,0,1,9.3,7.4a2.961,2.961,0,0,1-3.141-.411L5.5,6.518A12.424,12.424,0,0,1,3.931,4.8C2.706,3.517,1.625,3.061,0,4.067l.039-.1A5.966,5.966,0,0,1,5.9.017,10.016,10.016,0,0,1,9.537.781a2.593,2.593,0,0,1,1.3,1.526,4.521,4.521,0,0,1,.2,1.9Z" transform="matrix(0.208, 0.978, -0.978, 0.208, 13.453, 0)"/></g></svg>