<svg xmlns="http://www.w3.org/2000/svg" width="27.053" height="35.602" viewBox="0 0 27.053 35.602">
  <g id="Group_18" data-name="Group 18" transform="translate(-8.087 14.628) rotate(-39)">
    <path id="Path_28" data-name="Path 28" d="M16.216,21.257c.429-2.706.605-5.606-.581-8.141-.423-.818-1.082-1.526-1.582-2.308C13.008,9.3,11.924,7.577,10.939,6.014a13.55,13.55,0,0,0-2.35-2.922A9.305,9.305,0,0,0,.029.347L0,.194A9.566,9.566,0,0,1,7.327,1.64a16.578,16.578,0,0,1,2.815,2.6c.82,1,1.453,2.1,2.177,3.14s1.445,2.079,2.2,3.093a13.11,13.11,0,0,1,2.129,3.235A12.057,12.057,0,0,1,17,21.426l-.782-.168" transform="matrix(0.208, 0.978, -0.978, 0.208, 20.957, 8.395)" fill="#c4a892"/>
    <path id="Path_29" data-name="Path 29" d="M18.264,7.2c.1-1.808-.442-4.029-2.277-4.7a14.282,14.282,0,0,0-2.894-.428c-1.027-.111-2.036-.281-3.02-.37C6,1.088,2.3,3.472.176,6.911L.083,6.836a4.494,4.494,0,0,1,5.3-1.168,10.331,10.331,0,0,1,3.322,2.71c1.971,3.741,5.777,6.1,8.957,2.147l.621.506a7.166,7.166,0,0,1-2.228,1.754,5.116,5.116,0,0,1-5.426-.71L9.5,11.261C8.4,10.5,7.652,9.157,6.791,8.289,4.676,6.076,2.807,5.288,0,7.026l.067-.171C1.582,2.768,5.724-.333,10.186.029A17.3,17.3,0,0,1,16.477,1.35a4.48,4.48,0,0,1,2.246,2.636,7.811,7.811,0,0,1,.339,3.276Z" transform="matrix(0.208, 0.978, -0.978, 0.208, 23.243, 0)" fill="#889830"/>
  </g>
</svg>
