<?xml version="1.0" encoding="UTF-8"?>
<svg id="Layer_2" data-name="Layer 2" xmlns="http://www.w3.org/2000/svg" xmlns:xlink="http://www.w3.org/1999/xlink" viewBox="0 0 105.95 139.5">
  <defs>
    <style>
      .cls-1 {
        fill: none;
      }

      .cls-2 {
        fill: url(#linear-gradient);
      }

      .cls-3 {
        clip-path: url(#clippath);
      }

      .cls-4 {
        fill: #7e5e45;
      }

      .cls-5 {
        fill: #c4a892;
      }

      .cls-6 {
        fill: #889830;
      }

      .cls-7 {
        clip-path: url(#clippath-1);
      }
    </style>
    <clipPath id="clippath">
      <polygon class="cls-1" points="30.73 139.5 18.85 104.27 85.18 95.08 101.24 129.17 30.73 139.5"/>
    </clipPath>
    <clipPath id="clippath-1">
      <polygon class="cls-1" points="0 2.66 105.95 0 105.95 122.68 0 119.5 0 2.66"/>
    </clipPath>
    <linearGradient id="linear-gradient" x1="58.78" y1="85.78" x2="73.46" y2="45.47" gradientUnits="userSpaceOnUse">
      <stop offset="0" stop-color="#7e5e45"/>
      <stop offset=".04" stop-color="#86664e"/>
      <stop offset=".15" stop-color="#9c7e66"/>
      <stop offset=".29" stop-color="#ae917a"/>
      <stop offset=".44" stop-color="#ba9e87"/>
      <stop offset=".64" stop-color="#c1a58f"/>
      <stop offset="1" stop-color="#c4a892"/>
    </linearGradient>
  </defs>
  <g id="Layer_1-2" data-name="Layer 1">
    <g id="LOGO">
      <g class="cls-3">
        <g id="Group_11" data-name="Group 11">
          <path id="Path_20-2" data-name="Path 20-2" class="cls-4" d="m57.7,116.63c-.39-.02-.79-.03-1.2-.04s-.82-.01-1.23,0-.81.01-1.2.03-.75.04-1.09.08l-.47.06-.39.06-.07.02h-.06s-.06.03-.06.03h-.06s0,.02-.01.02h-.03s-.01,0-.02,0h.01s.02-.02.03-.02c0,0,.02-.01.02-.02,0,0,.02-.02.03-.03.02-.02.04-.03.06-.04,0-.02.02-.03.03-.05l.03-.05s.02-.03.03-.05c0-.02.01-.03.01-.05,0,0,0-.02,0-.02,0,0,0,0,0-.01,0,0,0,0,0,0,0,0,0,0,0-.01h0s0-.02,0-.02h-.01s0,0,0,0,0,0,0,0c0,0,0,.01,0,.02,0,.01.01.02.02.03.02.06.05.11.09.15.05.07.11.14.17.2.07.07.15.14.24.22s.19.15.3.22.22.15.34.22.25.15.38.22.27.14.41.21.29.13.43.2c.3.13.6.25.92.37s.65.22.98.31.67.18,1.02.25.69.13,1.03.17c.73.1,1.46.15,2.2.15.76,0,1.52-.04,2.28-.12.71-.08,1.42-.21,2.12-.39.6-.15,1.17-.36,1.72-.64.12-.06.23-.12.34-.19s.21-.13.3-.2c.09-.06.17-.13.25-.21.07-.07.14-.14.19-.23.07-.07.13-.15.18-.23.05-.08.09-.16.12-.25.03-.09.06-.17.08-.26.02-.09.04-.18.06-.27.01-.19,0-.39-.04-.58-.04-.21-.11-.41-.19-.61-.09-.21-.2-.42-.32-.62-.13-.21-.28-.42-.44-.61-.36-.43-.75-.83-1.17-1.19-.47-.4-.96-.77-1.48-1.11-.56-.36-1.13-.69-1.73-.99-.62-.31-1.26-.59-1.92-.84-.68-.25-1.38-.47-2.09-.65-.73-.18-1.49-.34-2.28-.46s-1.59-.21-2.4-.28-1.64-.1-2.47-.1-1.66.03-2.48.09-1.65.14-2.45.26-1.59.26-2.35.44c-.74.17-1.47.39-2.18.64-.35.12-.68.25-1,.39-.32.14-.63.28-.93.43-.3.15-.58.31-.85.47-.27.17-.53.34-.77.52-.22.18-.44.37-.64.57-.2.19-.38.39-.56.59-.17.2-.32.4-.46.62-.13.21-.25.42-.34.65-.08.22-.15.45-.21.67-.06.23-.11.45-.14.69-.03.23-.04.47-.04.7,0,.24.04.47.09.7l.05.35.11.35.23.7.35.69c.03.06.05.12.08.17.03.06.06.11.09.17.03.06.07.11.11.17s.08.11.12.17c.31.47.65.91,1.03,1.33.4.45.83.87,1.29,1.26.49.42,1,.81,1.54,1.16.57.38,1.17.74,1.78,1.05.31.17.62.33.95.49.33.15.67.3,1.02.44.35.14.7.27,1.07.4.36.13.73.25,1.1.36.2.05.39.1.58.15s.38.1.57.15.39.1.58.14.4.08.61.11l1.22.22,1.26.14c.85.09,1.71.15,2.57.17s1.74,0,2.62-.03,1.76-.11,2.63-.21,1.74-.22,2.6-.37,1.71-.32,2.54-.52,1.65-.43,2.44-.68,1.56-.53,2.3-.83,1.45-.62,2.12-.97c.35-.17.68-.34,1-.52s.62-.37.91-.57c.29-.2.57-.4.83-.6.27-.2.52-.41.77-.62.23-.22.45-.44.66-.66.21-.22.42-.44.61-.67.2-.22.38-.45.56-.67.18-.23.34-.46.5-.69.64-.85,1.11-1.81,1.41-2.83.27-.94.35-1.93.25-2.91-.11-.99-.39-1.96-.84-2.85-.49-.97-1.12-1.87-1.87-2.65l-.6-.62-.69-.59c-.11-.1-.22-.2-.35-.29s-.25-.19-.38-.28-.26-.18-.39-.27-.26-.18-.39-.27c-.28-.17-.56-.34-.85-.51-.29-.17-.59-.33-.89-.48-.3-.16-.62-.31-.94-.45s-.66-.28-1-.4c-.16-.07-.33-.14-.51-.2s-.35-.12-.53-.18-.36-.11-.54-.17-.36-.11-.54-.17l-.57-.14c-.19-.05-.38-.09-.57-.14s-.38-.09-.58-.13-.39-.08-.59-.11c-.39-.07-.79-.14-1.19-.2-.4-.06-.81-.11-1.22-.17-.41-.05-.82-.09-1.24-.13-.42-.03-.84-.07-1.28-.09-.85-.05-1.7-.07-2.56-.07-.86,0-1.72.02-2.59.06-.87.04-1.73.1-2.6.17-.87.07-1.74.16-2.61.26-.89.1-1.76.21-2.63.33-.86.12-1.71.25-2.55.4-.84.15-1.66.32-2.48.5-.81.18-1.61.39-2.4.61-.39.11-.78.22-1.16.34s-.76.24-1.13.38c-.37.13-.74.27-1.09.4-.36.14-.71.28-1.06.43-.18.07-.35.15-.52.22s-.34.16-.5.24-.33.16-.49.24l-.49.24c-.08.04-.16.09-.23.13l-.23.13-.23.13-.23.13c-.08.04-.16.09-.23.13-.08.04-.15.09-.22.14-.07.05-.14.09-.21.14-.07.05-.14.09-.2.14-.55.36-1.08.75-1.58,1.17-.47.39-.92.82-1.34,1.26-.39.42-.76.87-1.09,1.34-.31.44-.59.91-.82,1.4-.23.46-.41.95-.54,1.45-.13.48-.21.98-.26,1.48-.04.5-.04.99,0,1.49.04.5.12,1,.23,1.49.06.25.13.5.2.74.07.25.16.49.25.74.09.25.19.49.31.74.11.24.23.49.36.73.13.24.27.48.41.72s.3.48.45.71.33.47.51.69.37.44.58.65c.89.94,1.88,1.78,2.96,2.48,1.21.8,2.49,1.5,3.83,2.08,1.47.65,2.98,1.21,4.52,1.67,1.65.49,3.33.9,5.02,1.23.87.17,1.75.32,2.65.45s1.8.25,2.71.36c.91.1,1.83.19,2.76.26.93.07,1.86.12,2.8.16.92.04,1.85.06,2.78.06.93,0,1.86-.02,2.79-.05.93-.04,1.86-.1,2.78-.18.92-.08,1.84-.18,2.75-.31.46-.06.91-.12,1.36-.19.45-.07.9-.14,1.35-.22.45-.08.89-.16,1.33-.25.44-.09.88-.18,1.31-.28.44-.1.87-.2,1.3-.3s.86-.21,1.28-.33c.42-.11.84-.23,1.26-.36.41-.12.82-.25,1.22-.39.4-.13.8-.27,1.19-.42s.78-.3,1.17-.45c.39-.16.77-.31,1.15-.47l1.15-.48c.38-.16.75-.32,1.12-.48s.73-.32,1.08-.48c.35-.16.7-.32,1.04-.49s.67-.33.99-.49c.32-.16.63-.33.93-.5s.59-.34.86-.52c.27-.18.53-.36.78-.54.25-.19.48-.38.69-.57.21-.2.4-.4.59-.6.18-.2.35-.41.5-.64.15-.21.28-.43.41-.66.12-.22.22-.45.31-.68.17-.45.28-.93.32-1.42.04-.49.02-.97-.06-1.45-.08-.5-.21-.99-.39-1.47-.19-.51-.41-1-.68-1.47l1.8-.47c.51.45.99.94,1.41,1.48.39.5.73,1.04,1,1.62.26.55.43,1.13.53,1.73.09.6.09,1.2,0,1.8-.06.31-.15.61-.25.9-.11.31-.24.6-.39.89-.16.3-.34.6-.54.87-.22.3-.46.58-.72.84-.13.14-.27.27-.41.4s-.29.26-.45.39c-.15.13-.31.26-.47.38s-.33.25-.5.37c-.18.12-.36.23-.54.35s-.37.22-.56.33c-.19.11-.38.21-.57.32s-.39.2-.59.3c-.4.19-.81.38-1.23.55s-.84.34-1.27.5c-.43.16-.86.31-1.29.45s-.87.28-1.3.42c-.43.13-.86.27-1.29.4-.43.13-.87.26-1.31.39-.44.13-.89.26-1.33.39-.45.13-.9.25-1.35.38-.9.25-1.81.49-2.73.72-.92.23-1.85.45-2.8.65-.94.2-1.9.38-2.86.55-.96.16-1.94.31-2.93.42-.98.12-1.97.23-2.97.31s-2,.15-3,.19c-1,.04-2.01.06-3.01.06s-2.01-.02-3-.07c-.99-.04-1.98-.09-2.96-.16s-1.96-.16-2.94-.26c-.97-.11-1.94-.23-2.9-.37-.96-.14-1.91-.3-2.85-.48-.94-.18-1.86-.37-2.78-.59-.91-.22-1.81-.46-2.69-.72-.88-.26-1.73-.54-2.57-.84-.84-.3-1.64-.62-2.43-.97-.78-.34-1.53-.71-2.24-1.1-.72-.39-1.4-.8-2.04-1.22-.62-.41-1.22-.86-1.79-1.33-.54-.45-1.05-.92-1.53-1.43-.24-.25-.47-.5-.68-.76s-.4-.51-.57-.77-.34-.51-.5-.77-.31-.52-.45-.78-.28-.53-.4-.79-.24-.53-.34-.8-.2-.54-.28-.81-.16-.54-.23-.81c-.13-.54-.21-1.09-.26-1.65-.05-.55-.05-1.11-.01-1.66.09-1.15.39-2.26.88-3.3.27-.56.58-1.09.93-1.6.38-.54.79-1.05,1.24-1.53.48-.51.99-1,1.53-1.45.57-.48,1.18-.93,1.8-1.35.08-.06.15-.11.23-.16.08-.05.16-.11.24-.16.08-.05.17-.1.25-.15s.17-.1.26-.15l.26-.15.26-.15.26-.15c.09-.05.18-.1.27-.15l.56-.28c.19-.09.37-.19.56-.28s.38-.18.57-.27.39-.17.59-.26c.39-.17.79-.34,1.19-.49s.82-.31,1.23-.46c.42-.15.84-.29,1.26-.42s.86-.26,1.3-.39c.87-.25,1.75-.47,2.65-.68s1.81-.39,2.72-.55,1.83-.31,2.75-.44,1.83-.25,2.74-.35c.91-.1,1.85-.21,2.78-.29s1.88-.15,2.83-.2,1.91-.07,2.87-.08,1.92.02,2.88.07c.48.02.96.05,1.44.09s.96.08,1.43.14.95.12,1.42.19c.47.07.94.15,1.4.23.23.04.47.08.69.13.23.05.46.1.68.15.23.05.45.11.67.16l.67.16c.21.07.43.13.65.19s.43.13.65.19.43.13.63.21.41.15.61.23c.41.15.81.31,1.2.47s.76.34,1.12.52c.36.18.72.37,1.06.56.34.19.68.39,1.01.59.15.11.3.21.46.32s.31.21.46.32.3.21.45.32.28.22.41.34l.2.17.2.17.2.17c.07.06.13.11.2.17l.71.72c.87.9,1.59,1.93,2.16,3.04.52,1.02.84,2.13.97,3.27.12,1.13.02,2.27-.29,3.36-.35,1.18-.9,2.3-1.64,3.29-.19.28-.4.54-.63.79-.23.26-.49.51-.75.75s-.55.49-.84.72-.59.47-.89.7c-.33.22-.66.44-.99.66-.33.22-.67.43-1.01.64-.34.21-.69.42-1.04.62s-.72.4-1.09.6c-.74.39-1.52.76-2.32,1.12-.8.35-1.64.69-2.5,1-.87.31-1.76.6-2.67.86-.92.26-1.86.49-2.84.69-.97.2-1.96.38-2.97.51s-2.03.24-3.07.31-2.08.09-3.12.08-2.08-.08-3.11-.18l-1.54-.17-1.5-.26c-.25-.04-.5-.08-.75-.13s-.48-.11-.72-.17-.47-.12-.71-.19-.47-.12-.71-.18c-.46-.14-.91-.28-1.35-.43s-.87-.31-1.3-.47c-.42-.17-.83-.34-1.23-.52-.4-.18-.78-.37-1.14-.57-.72-.37-1.42-.78-2.1-1.23-.63-.42-1.24-.87-1.82-1.36-.54-.46-1.05-.94-1.52-1.47-.44-.49-.85-1.01-1.23-1.55-.05-.07-.1-.13-.14-.2-.04-.07-.09-.13-.13-.2-.04-.07-.08-.13-.11-.2-.04-.07-.07-.14-.1-.21l-.42-.82-.29-.85-.14-.42-.07-.43c-.07-.29-.1-.58-.11-.87-.01-.29,0-.59.04-.88.04-.3.09-.59.17-.88.08-.3.17-.59.27-.88.12-.3.27-.59.44-.87.18-.3.38-.58.6-.85.23-.29.48-.56.75-.82.27-.27.56-.53.87-.78.33-.25.67-.48,1.03-.71s.75-.44,1.14-.65.81-.4,1.24-.58.86-.36,1.31-.52.9-.31,1.37-.45.94-.27,1.42-.39.96-.22,1.45-.32.98-.18,1.48-.25,1-.14,1.5-.2,1-.11,1.51-.15,1.01-.07,1.52-.09,1.01-.03,1.52-.03c1.01,0,2.02.03,3.02.1s2,.18,2.98.32,1.94.33,2.88.56c.92.22,1.83.49,2.72.81.43.16.85.32,1.25.49.4.17.8.35,1.18.53.38.18.75.38,1.11.57.36.2.7.4,1.04.61.34.21.66.42.98.64s.62.45.91.68c.29.23.57.48.83.73.26.25.51.51.75.77.23.26.44.53.64.82.19.28.37.57.52.88.15.3.26.61.34.93.08.33.12.66.12,1,0,.36-.08.71-.21,1.04-.15.37-.34.72-.59,1.04-.27.36-.59.68-.94.96-.39.32-.81.59-1.26.82-.46.25-.94.47-1.44.66-.5.2-1.01.37-1.54.52s-1.07.28-1.61.39-1.1.2-1.65.28-1.11.13-1.68.18-1.13.07-1.69.08-1.14,0-1.71-.02-1.14-.07-1.71-.13c-.29-.03-.57-.07-.85-.11-.28-.04-.56-.09-.83-.14-.27-.05-.54-.1-.81-.16-.26-.06-.52-.12-.78-.19-.26-.07-.51-.13-.76-.2-.25-.07-.49-.14-.73-.23-.24-.08-.48-.16-.71-.25-.23-.08-.46-.17-.68-.26-.23-.09-.45-.19-.67-.28-.22-.1-.43-.2-.64-.3-.21-.1-.42-.21-.62-.33s-.4-.23-.59-.36c-.19-.13-.38-.25-.57-.39s-.37-.28-.54-.43c-.17-.15-.34-.32-.49-.49-.16-.18-.3-.37-.42-.57-.03-.05-.06-.1-.09-.16-.03-.06-.05-.12-.07-.17-.02-.06-.04-.12-.06-.18s-.03-.12-.05-.18c-.01-.03-.02-.06-.02-.09,0-.04,0-.07,0-.11v-.22s0-.07,0-.11,0-.07,0-.11c0-.04,0-.07.02-.11.01-.04.02-.08.04-.12.05-.17.13-.33.24-.48.11-.17.24-.32.39-.46.16-.15.32-.28.5-.4.18-.12.36-.23.55-.32.1-.05.19-.1.28-.14s.18-.08.27-.11.18-.07.27-.1l.28-.1.25-.08.26-.07.26-.07.25-.06.24-.05.24-.05.24-.05.24-.04.9-.14c.58-.07,1.14-.13,1.69-.17s1.08-.07,1.6-.09,1.05-.03,1.57-.03,1.05,0,1.6.01l-.65,3.59Z"/>
        </g>
      </g>
      <g class="cls-7">
        <g id="Group_13" data-name="Group 13">
          <path id="Path_21" data-name="Path 21" class="cls-2" d="m55.51,121.17c-.46-.63-.85-1.31-1.17-2.02-.29-.68-.53-1.38-.72-2.1-.18-.71-.33-1.42-.46-2.14s-.26-1.43-.4-2.14-.25-1.43-.37-2.14-.23-1.43-.34-2.14-.21-1.43-.3-2.15-.18-1.43-.27-2.15c-.48-4.3-.75-8.62-.79-12.95-.04-4.33.16-8.66.59-12.96.43-4.32,1.12-8.6,2.05-12.84.94-4.27,2.15-8.47,3.62-12.59,1.02-1.05,2.02-2.12,3-3.2s1.93-2.19,2.86-3.31c.93-1.12,1.83-2.26,2.71-3.41.87-1.15,1.72-2.32,2.53-3.51.67-1.04,1.33-2.09,2.05-3.11.71-1.02,1.5-1.98,2.38-2.86.9-.89,1.94-1.65,3.07-2.23,1.29-.64,2.67-1.05,4.1-1.21,1.38-.1,2.75-.33,4.09-.71,1.27-.35,2.48-.85,3.63-1.48,1.1-.61,2.11-1.36,3.01-2.25.89-.88,1.63-1.88,2.22-2.99l.94.43c-.65.8-1.35,1.55-2.1,2.26-.76.73-1.58,1.39-2.45,1.99-.88.61-1.82,1.15-2.8,1.59-1.01.46-2.07.81-3.16,1.05-.53.12-1.08.21-1.62.3s-1.08.17-1.62.27c-.54.1-1.07.21-1.58.35-.52.14-1.02.31-1.51.53-.96.39-1.85.92-2.64,1.59-.74.62-1.4,1.33-1.98,2.11-.57.77-1.09,1.57-1.57,2.39-.49.82-.96,1.64-1.46,2.43-.76,1.23-1.56,2.44-2.39,3.64-.83,1.2-1.68,2.38-2.56,3.55-.88,1.17-1.79,2.32-2.73,3.45-.94,1.13-1.9,2.25-2.88,3.35l.18-.32c-.15.69-.3,1.39-.45,2.08s-.28,1.39-.42,2.08c-.13.7-.26,1.39-.39,2.09s-.25,1.39-.36,2.09c-.33,2.08-.61,4.17-.84,6.26-.24,2.09-.42,4.19-.56,6.29-.13,2.1-.22,4.2-.25,6.3s-.01,4.2.07,6.3c.08,2.1.21,4.19.38,6.28s.4,4.18.67,6.27.59,4.17.97,6.25c.37,2.08.79,4.15,1.26,6.22.13.69.31,1.38.48,2.07s.36,1.37.5,2.06c.15.69.26,1.39.31,2.1.05.72.02,1.45-.1,2.17l-4.45.71Z"/>
          <path id="Path_22" data-name="Path 22" class="cls-5" d="m56.78,53.19c.26-1.39.49-2.8.63-4.22.15-1.41.2-2.84.14-4.26-.05-1.41-.26-2.82-.6-4.19-.35-1.4-.89-2.74-1.59-4-.27-.42-.56-.83-.87-1.21-.31-.39-.65-.78-.99-1.16s-.69-.76-1.03-1.15-.67-.77-.97-1.17c-.64-.77-1.28-1.56-1.92-2.36s-1.28-1.62-1.92-2.45-1.27-1.65-1.89-2.47-1.23-1.62-1.83-2.41c-.4-.55-.81-1.08-1.24-1.6s-.88-1.02-1.35-1.5c-.47-.49-.96-.96-1.47-1.41-.51-.46-1.05-.9-1.6-1.33-1.32-1.16-2.79-2.15-4.36-2.95-1.61-.82-3.3-1.45-5.06-1.88-1.78-.45-3.61-.7-5.45-.75-1.86-.06-3.72.09-5.55.44l-.07-.31c1.48-.28,2.98-.45,4.49-.48,1.51-.04,3.03.04,4.53.25,1.49.2,2.95.54,4.38,1.01,1.4.46,2.76,1.06,4.04,1.79.63.37,1.24.75,1.83,1.15.59.4,1.17.82,1.73,1.25.56.43,1.11.88,1.65,1.34.53.46,1.06.93,1.57,1.42.5.5.96,1.02,1.41,1.54s.88,1.05,1.31,1.59.84,1.07,1.26,1.6.85,1.06,1.29,1.59.87,1.05,1.31,1.58.88,1.05,1.33,1.57.89,1.04,1.34,1.56.91,1.03,1.36,1.55c.46.53.95,1.05,1.44,1.56s.99,1.03,1.45,1.56c.47.52.91,1.07,1.31,1.64.4.57.73,1.17,1,1.81.63,1.22,1.11,2.51,1.44,3.83.32,1.31.51,2.65.55,3.99.05,1.35-.03,2.7-.22,4.03-.2,1.34-.5,2.66-.9,3.95l-1.92-.34"/>
          <path id="Path_23" data-name="Path 23" class="cls-6" d="m43.28,16.23c.06-.95.02-1.91-.13-2.85-.15-.96-.44-1.9-.86-2.78-.42-.88-1.01-1.67-1.74-2.32-.79-.7-1.74-1.21-2.76-1.49-.54-.14-1.08-.24-1.62-.32-.56-.08-1.13-.14-1.72-.18s-1.18-.08-1.78-.11-1.21-.06-1.81-.1-1.22-.09-1.83-.14-1.21-.11-1.81-.16-1.2-.11-1.79-.15-1.18-.09-1.77-.12c-2.34-.24-4.71-.14-7.02.31-2.22.43-4.36,1.17-6.38,2.18-3.92,1.97-7.3,4.87-9.84,8.45l-.22-.15c.76-.75,1.63-1.39,2.58-1.89.99-.53,2.04-.92,3.13-1.17,1.11-.25,2.25-.35,3.38-.28,1.14.07,2.25.32,3.3.76.75.33,1.48.68,2.19,1.06s1.4.79,2.06,1.23c.66.43,1.29.9,1.89,1.41.6.5,1.17,1.03,1.7,1.61,1.15,1.85,2.57,3.5,4.23,4.91,1.56,1.34,3.38,2.34,5.34,2.93,1.93.57,3.98.58,5.91.01,2.29-.73,4.34-2.06,5.94-3.86l1.5,1.01c-.38.37-.77.73-1.18,1.07-.41.34-.84.67-1.29.97-.45.31-.91.59-1.4.86s-.99.51-1.5.74c-1.05.48-2.16.79-3.3.94-1.14.15-2.3.16-3.44.02-1.13-.13-2.24-.39-3.31-.77-1.03-.37-2.01-.85-2.93-1.45l-2.68-1.6c-.65-.38-1.26-.82-1.82-1.31-.57-.49-1.1-1.02-1.61-1.55s-1-1.08-1.5-1.59c-.47-.5-.97-.98-1.49-1.43-1.13-1.02-2.36-1.92-3.67-2.7-1.14-.68-2.4-1.15-3.7-1.41-1.32-.24-2.68-.21-3.99.08-1.59.37-3.12.97-4.53,1.78l.16-.34c.92-2.1,2.17-4.05,3.71-5.75,1.61-1.79,3.47-3.34,5.52-4.61,2.13-1.32,4.44-2.32,6.85-2.99,2.5-.69,5.1-.98,7.69-.87,1.32.05,2.61.1,3.87.19s2.51.2,3.75.36c1.24.16,2.47.38,3.7.66,1.26.29,2.5.66,3.72,1.1.64.23,1.24.53,1.81.9.55.36,1.07.77,1.53,1.24.45.45.86.94,1.22,1.47.34.51.63,1.05.86,1.62.22.54.4,1.09.54,1.65.14.55.24,1.11.3,1.67.06.56.09,1.12.08,1.68,0,.56-.04,1.11-.1,1.67l-1.93-.09Z"/>
          <path id="Path_24" data-name="Path 24" class="cls-6" d="m71.11,30.25c.16-.75.35-1.49.57-2.23.22-.74.47-1.46.74-2.18.28-.72.59-1.43.92-2.14.34-.7.71-1.4,1.11-2.09.24-.59.51-1.16.81-1.71.33-.61.72-1.19,1.16-1.73.46-.56.99-1.06,1.59-1.47.63-.44,1.34-.76,2.09-.95.72-.26,1.48-.41,2.25-.45.78-.04,1.56-.02,2.33.07.77.09,1.53.23,2.26.38.73.15,1.42.32,2.05.47,1.25.29,2.51.51,3.78.66,1.28.15,2.57.23,3.86.25,1.3.02,2.6-.03,3.9-.14s2.6-.28,3.9-.51l1.52-.26-.29,1.11c-.22.82-.47,1.63-.76,2.43-.29.8-.64,1.57-1.04,2.32-.41.76-.87,1.49-1.4,2.18-.55.72-1.17,1.38-1.84,1.98-.59.53-1.15,1.09-1.67,1.69-.5.56-.96,1.16-1.38,1.79-.4.61-.75,1.25-1.05,1.92-.3.67-.53,1.36-.7,2.07-.07,1.02-.47,1.99-1.13,2.76-.66.71-1.49,1.23-2.41,1.52-1.02.33-2.09.51-3.17.53-1.14.03-2.27-.03-3.4-.2-.42-.06-.88-.11-1.37-.17s-.99-.11-1.49-.17-1.01-.12-1.48-.19-.93-.15-1.34-.23c-.47-.09-.93-.18-1.4-.28-.47-.1-.93-.2-1.4-.31-.46-.11-.92-.23-1.38-.35s-.91-.25-1.36-.39l.76-1.54c.83.32,1.68.59,2.56.83.87.24,1.76.44,2.65.61s1.81.31,2.72.42,1.83.2,2.75.27c.46.03.92.06,1.37.08s.91.03,1.35.02c.43,0,.86-.04,1.28-.1.4-.05.79-.14,1.16-.26.35-.12.69-.3.99-.52.22-.17.39-.39.5-.64.1-.26.15-.53.15-.81,0-.35-.01-.7-.05-1.04,0-.21,0-.43,0-.65s.03-.45.07-.68c.03-.23.08-.46.14-.69.06-.23.13-.45.22-.67.09-.22.19-.44.29-.65.11-.21.23-.42.35-.62.13-.2.27-.4.42-.59.16-.2.32-.38.5-.56.33-.35.71-.67,1.12-.93.42-.27.86-.5,1.31-.71.45-.22.92-.42,1.36-.62.44-.2.88-.42,1.3-.66.7-.47,1.34-1.03,1.89-1.68.52-.62.96-1.3,1.3-2.03.33-.71.55-1.46.67-2.24.12-.76.12-1.53,0-2.29l1.23.85c-.9.17-1.81.33-2.72.47-.91.14-1.82.26-2.74.35-.92.1-1.84.17-2.76.22-.92.05-1.85.07-2.77.07-.83.02-1.71,0-2.61-.03s-1.81-.09-2.72-.15-1.81-.12-2.67-.16-1.7-.07-2.47-.07c-1.53.15-3.01.61-4.34,1.35-1.27.71-2.4,1.65-3.33,2.76-.9,1.06-1.6,2.28-2.07,3.59-.45,1.23-.64,2.53-.56,3.84l-1.98-.09"/>
        </g>
      </g>
    </g>
  </g>
</svg>