<svg xmlns="http://www.w3.org/2000/svg" xmlns:xlink="http://www.w3.org/1999/xlink" width="75.775" height="53.443" viewBox="0 0 75.775 53.443"><defs><filter id="a" x="-9" y="-6" width="93.775" height="71.443" filterUnits="userSpaceOnUse"><feOffset dy="3" input="SourceAlpha"/><feGaussianBlur stdDeviation="3" result="b"/><feFlood flood-opacity="0.161"/><feComposite operator="in" in2="b"/><feComposite in="SourceGraphic"/></filter><clipPath id="c"><g transform="matrix(1, 0, 0, 1, 0, 0)" filter="url(#a)"><path d="M11.287,6h71.2l2.287,53.443H9Z" transform="translate(-9 -6)" fill="#7e5e45"/></g></clipPath></defs><g clip-path="url(#c)"><path d="M33.3,23.771c.168-.318.33-.657.477-1s.279-.7.388-1.041a7.685,7.685,0,0,0,.249-.987,3.554,3.554,0,0,0,.06-.841,1.113,1.113,0,0,0-.01-.163c-.006-.047-.015-.086-.022-.117s-.013-.053-.014-.065,0-.016.012-.009a.057.057,0,0,0,.011.014l.016.011.02.009.024.008a.233.233,0,0,0,.027.032.278.278,0,0,0,.034.029.319.319,0,0,0,.041.024.354.354,0,0,0,.046.019.173.173,0,0,1,.048.014.354.354,0,0,1,.039.022.375.375,0,0,0,.039.021.159.159,0,0,0,.046.014l.051.008.035.007.023.006.015.006.04,0c.005,0,0,0,0,0l-.025,0a.086.086,0,0,1-.028-.011.447.447,0,0,1-.073.006H34.8c-.025,0-.052,0-.083,0a.78.78,0,0,0-.1.014L34.5,19.8l-.114.016c-.039.006-.079.013-.121.021s-.085.018-.129.03-.085.016-.129.026l-.134.033-.138.039-.14.042a9.679,9.679,0,0,0-1.144.425A11.489,11.489,0,0,0,31.341,21a11.85,11.85,0,0,0-1.037.676,10.434,10.434,0,0,0-.914.748,6.663,6.663,0,0,0-.758.8,6.3,6.3,0,0,0-.591.881,6.2,6.2,0,0,0-.425.947,6.326,6.326,0,0,0-.262,1,5.7,5.7,0,0,0-.089,1.006,5.227,5.227,0,0,0,.093.987,4.553,4.553,0,0,0,.282.927,3.923,3.923,0,0,0,.476.824,3.378,3.378,0,0,0,.656.678,4.176,4.176,0,0,0,.851.51,6.064,6.064,0,0,0,1.037.356,9.419,9.419,0,0,0,1.215.215c.436.036.889.05,1.352.043s.936-.035,1.415-.083.962-.116,1.445-.2.966-.192,1.442-.316.948-.264,1.414-.416.925-.316,1.376-.493.892-.365,1.323-.565.85-.41,1.257-.63.791-.455,1.158-.7.715-.5,1.046-.762.643-.54.94-.827.576-.584.84-.893a11.9,11.9,0,0,0,.724-.952,11.682,11.682,0,0,0,.611-1q.277-.508.5-1.032a11.214,11.214,0,0,0,.385-1.056,10.287,10.287,0,0,0,.418-2.149,9.21,9.21,0,0,0-.066-2.146,8.233,8.233,0,0,0-.583-2.048,7.833,7.833,0,0,0-1.134-1.858q-.178-.214-.368-.421t-.4-.4q-.206-.2-.427-.381t-.461-.357l-.988-.659-1.116-.549q-.584-.248-1.21-.448T41.484,9.9q-.659-.154-1.347-.26t-1.394-.165q-.706-.066-1.426-.081t-1.446.016q-.726.03-1.453.1t-1.446.171q-.721.1-1.435.235t-1.415.305q-.7.17-1.383.376t-1.341.446A23.664,23.664,0,0,0,24.848,12.1a19.706,19.706,0,0,0-2.27,1.284,15.616,15.616,0,0,0-1.932,1.494,11.987,11.987,0,0,0-1.536,1.683q-.319.45-.6.916c-.187.311-.359.627-.514.948a10.009,10.009,0,0,0-.412.98,8.645,8.645,0,0,0-.295,1.011q-.109.513-.179,1.032t-.1,1.043q-.026.524,0,1.051t.1,1.056c.059.351.128.7.209,1.052s.174.7.282,1.047.23.693.369,1.035.295.681.469,1.016.366.661.564.988.4.651.624.969.452.632.7.938.51.606.791.9A17.756,17.756,0,0,0,22.9,34.2a19.507,19.507,0,0,0,2.065,1.462A21.359,21.359,0,0,0,27.288,36.9a23.24,23.24,0,0,0,2.546.986,27.656,27.656,0,0,0,5.551,1.23,32.172,32.172,0,0,0,5.843.156,30.456,30.456,0,0,0,5.67-.893,23.479,23.479,0,0,0,5.035-1.909,17.491,17.491,0,0,0,2.121-1.333,15.92,15.92,0,0,0,1.833-1.571,14.786,14.786,0,0,0,1.526-1.788,14.119,14.119,0,0,0,1.2-1.983,15.191,15.191,0,0,0,.9-2.124,18.582,18.582,0,0,0,.6-2.225c.155-.755.271-1.524.356-2.3s.14-1.566.175-2.36q.024-.576.015-1.149T60.6,18.491q-.046-.568-.13-1.133t-.208-1.123q-.132-.557-.3-1.107t-.387-1.089q-.214-.539-.472-1.067t-.559-1.041a14.342,14.342,0,0,0-1.409-1.977,16.881,16.881,0,0,0-1.784-1.807,19.521,19.521,0,0,0-2.118-1.606,21.968,21.968,0,0,0-2.412-1.374,23.4,23.4,0,0,0-2.642-1.135,28.889,28.889,0,0,0-2.845-.859c-.976-.242-1.977-.442-2.993-.6s-2.048-.28-3.086-.362q-.78-.063-1.566-.093t-1.576-.034q-.789,0-1.58.02t-1.58.067c-.526.035-1.052.073-1.576.12s-1.045.1-1.561.167-1.027.145-1.529.24-1,.205-1.479.336c-.124.031-.248.06-.373.089l-.374.087c-.125.029-.249.059-.373.09s-.246.064-.368.1l-1.439.459-.721.228-.688.276-1.378.556q-.662.311-1.313.636t-1.283.675q-.631.349-1.234.725T16.09,7.74a26.331,26.331,0,0,0-2.2,1.687q-1.042.888-1.968,1.852T10.17,13.264q-.823,1.021-1.545,2.085-.358.531-.692,1.076t-.648,1.1q-.314.557-.61,1.121T6.1,19.781q-.276.566-.525,1.138t-.47,1.15q-.22.578-.409,1.162T4.35,24.4A19.66,19.66,0,0,0,3.9,26.775a17.414,17.414,0,0,0-.135,2.389,15.676,15.676,0,0,0,.212,2.378,14.627,14.627,0,0,0,.592,2.339c.138.382.285.764.446,1.142s.334.755.525,1.125.4.737.628,1.1A11.976,11.976,0,0,0,6.924,38.3c.067.086.131.173.194.261l.188.264c.063.088.128.175.2.261s.14.17.217.251l.92.983.46.493.525.456,1.057.911a23.835,23.835,0,0,0,2.367,1.653,29.158,29.158,0,0,0,2.634,1.431c.917.44,1.868.844,2.846,1.211s1.983.7,3,.993q.767.225,1.552.411t1.581.346q.8.16,1.6.3t1.608.263q.814.1,1.629.182t1.632.148q.817.063,1.635.1t1.638.039l1.633.011,1.626-.071c.271-.007.541-.019.81-.035s.538-.036.805-.058.535-.046.8-.071l.8-.074c.267-.024.532-.054.8-.088s.525-.072.787-.112l.784-.121c.261-.04.523-.079.787-.115s.542-.09.808-.136.527-.094.788-.143.519-.1.777-.154.516-.109.776-.168q.772-.175,1.534-.367t1.513-.4q.751-.21,1.49-.437t1.464-.47q.725-.245,1.428-.512T56,45.177q.684-.287,1.351-.59t1.319-.62l1.239-.69.624-.34.576-.376,1.157-.75,1.051-.819c.188-.129.365-.265.534-.405s.331-.285.489-.431.313-.295.47-.443.313-.3.475-.44.3-.3.441-.458.276-.314.41-.474l.4-.479c.134-.16.27-.318.411-.475.105-.171.215-.34.327-.51s.225-.338.338-.506.226-.338.336-.508.218-.341.321-.513l.562-1.057.454-1.086q.2-.549.369-1.107t.3-1.124q.13-.565.219-1.138t.136-1.152a17.961,17.961,0,0,0,.022-2.329,19.692,19.692,0,0,0-.272-2.345,21.784,21.784,0,0,0-.549-2.34,24.1,24.1,0,0,0-.811-2.317l1.808-.544a21.179,21.179,0,0,1,1.591,2.3,19.747,19.747,0,0,1,1.239,2.437A18.625,18.625,0,0,1,74.2,26.1a17.867,17.867,0,0,1,.482,2.639,15.63,15.63,0,0,1,.061,2.7,16.2,16.2,0,0,1-.406,2.711,17.056,17.056,0,0,1-.876,2.677,18.206,18.206,0,0,1-1.349,2.594c-.152.2-.3.408-.447.615s-.294.413-.443.62-.3.411-.459.614-.323.4-.5.6-.36.385-.538.579-.357.389-.539.581-.369.382-.564.568-.4.365-.613.538l-.312.266-.312.266-.315.265q-.158.132-.319.262l-1.373.972-.693.485-.738.44-1.492.869q-1.54.82-3.174,1.517T55.941,50.74q-1.71.575-3.483,1.024t-3.589.773c-.3.057-.6.11-.908.162s-.611.1-.917.146-.612.09-.915.132-.6.081-.9.118c-.312.025-.624.053-.936.081s-.626.058-.939.085-.626.053-.939.073-.626.037-.939.046-.627.018-.939.028-.625.02-.938.026-.624.01-.936.007-.624-.012-.935-.029l-1.864-.065-1.849-.155q-.923-.076-1.837-.189t-1.818-.255q-.9-.142-1.8-.307T26.78,52.1q-.877-.207-1.745-.429T23.314,51.2q-.853-.245-1.69-.518t-1.65-.58l-1.633-.6q-.2-.081-.4-.166t-.392-.172l-.39-.174-.391-.172c-.266-.108-.526-.223-.781-.343s-.507-.245-.756-.372-.5-.257-.743-.387-.493-.259-.741-.386q-.19-.091-.374-.189t-.362-.2q-.179-.1-.353-.21t-.347-.217l-1.389-.859q-.326-.232-.65-.466t-.643-.471q-.319-.237-.63-.479t-.613-.489a25.482,25.482,0,0,1-2.222-2.1A22.088,22.088,0,0,1,4.3,39.378a18.8,18.8,0,0,1-1.467-2.419,16.881,16.881,0,0,1-1.617-5.123,17.154,17.154,0,0,1-.169-2.607,19.219,19.219,0,0,1,.206-2.591,21.935,21.935,0,0,1,.532-2.544q.168-.629.374-1.251T2.6,21.609q.238-.612.506-1.216t.562-1.2q.3-.589.608-1.173t.64-1.16q.33-.577.684-1.148t.74-1.137q.383-.562.795-1.114t.853-1.09q.441-.538.91-1.064t.966-1.036q.494-.512,1.018-1.01t1.078-.977q.554-.479,1.14-.94t1.2-.9q.6-.449,1.252-.864t1.329-.8q.681-.387,1.388-.749T19.7,3.326L21.2,2.7l.754-.309.788-.26,1.576-.518c.133-.04.267-.077.4-.113s.271-.07.408-.1l.41-.1c.137-.033.273-.067.408-.1s.275-.066.411-.1l.406-.1c.136-.034.273-.067.412-.1s.282-.062.43-.09.285-.052.426-.077L28.459.66l.421-.066L29.3.531q.422-.056.843-.109t.844-.1q.423-.047.846-.088t.849-.071q.849-.063,1.7-.1T36.1.006q.856-.013,1.714,0t1.716.069c1.14.068,2.284.178,3.421.334s2.267.358,3.378.61a33.516,33.516,0,0,1,3.265.912,27.736,27.736,0,0,1,3.083,1.241c.122.06.246.118.371.175l.375.171c.125.058.248.116.369.178s.239.126.352.194l1.375.81.172.1.173.1.172.1q.085.052.168.1l.637.449c.1.076.21.151.318.226s.215.149.321.224.211.151.313.23.2.159.293.243q.609.475,1.161.985T60.3,8.52q.5.538.956,1.1t.866,1.138q.415.578.779,1.173t.68,1.205q.316.61.583,1.232t.488,1.253q.229.63.416,1.268t.334,1.282q.147.644.253,1.291t.172,1.3c.083.836.149,1.687.181,2.55s.031,1.741-.02,2.625a21.317,21.317,0,0,1-.319,2.677,18.275,18.275,0,0,1-.717,2.7q-.233.677-.534,1.348T63.739,34q-.372.662-.814,1.309t-.956,1.275a16.186,16.186,0,0,1-1.1,1.228q-.592.6-1.259,1.157t-1.4,1.08q-.729.52-1.513,1t-1.616.9q-.835.421-1.716.783t-1.792.675q-.911.313-1.845.58t-1.889.49q-.955.218-1.928.384t-1.957.28q-.984.114-1.976.178t-1.986.093Q39,45.428,38,45.4t-1.984-.108q-.989-.078-1.97-.2c-.329-.034-.656-.076-.981-.124s-.649-.1-.971-.161-.644-.12-.965-.183l-.962-.192q-.238-.054-.474-.114t-.471-.123l-.469-.127-.469-.125q-.237-.058-.47-.125t-.462-.139q-.229-.073-.456-.15t-.452-.158a29.776,29.776,0,0,1-3.5-1.419,28.643,28.643,0,0,1-3.174-1.783,26.376,26.376,0,0,1-2.79-2.081,23.117,23.117,0,0,1-2.349-2.314,20.859,20.859,0,0,1-1.888-2.5,19.114,19.114,0,0,1-1.417-2.635A17.941,17.941,0,0,1,10.38,27.9,17.294,17.294,0,0,1,9.9,25.114a13.434,13.434,0,0,1-.049-1.408q.012-.7.094-1.409t.227-1.4q.145-.7.349-1.391a12.763,12.763,0,0,1,.5-1.371,14.666,14.666,0,0,1,.665-1.338q.369-.659.809-1.3t.937-1.251l1.082-1.19c.1-.1.2-.189.3-.281s.207-.184.312-.275l.317-.272c.106-.091.211-.181.315-.272s.206-.184.314-.273.219-.174.332-.259.228-.167.345-.248.234-.162.353-.242.234-.161.351-.243.233-.162.351-.241.238-.157.36-.232.247-.147.375-.215q.735-.448,1.513-.842t1.586-.74q.808-.346,1.642-.65T24.965,7.2q.848-.272,1.719-.5t1.758-.41q.887-.183,1.791-.322t1.818-.235q.912-.1,1.837-.155t1.856-.064q.931-.007,1.867.043t1.872.165c.621.074,1.242.168,1.859.281s1.231.248,1.836.4,1.2.336,1.787.541,1.157.433,1.713.688l1.6.842q.184.12.363.244t.356.25l.353.252.352.252q.34.261.652.538t.6.567q.286.29.548.592t.5.61a11.824,11.824,0,0,1,1.466,2.591,11.065,11.065,0,0,1,.719,2.7,11.593,11.593,0,0,1,.04,2.728,12.961,12.961,0,0,1-.57,2.679,13.8,13.8,0,0,1-.5,1.309q-.287.648-.645,1.28t-.788,1.243q-.43.611-.931,1.2a15.429,15.429,0,0,1-1.072,1.145q-.576.558-1.225,1.078t-1.357.991q-.708.47-1.465.884t-1.551.78q-.793.369-1.621.694t-1.689.606q-.862.28-1.756.515c-.594.157-1.2.3-1.824.418s-1.259.219-1.908.291-1.312.119-1.988.135-1.363,0-2.062-.051c-.349-.039-.7-.085-1.054-.141s-.706-.124-1.056-.206-.7-.177-1.04-.29a9.583,9.583,0,0,1-1.007-.395,2.438,2.438,0,0,1-.246-.106c-.079-.039-.156-.081-.232-.125s-.151-.088-.226-.133-.151-.088-.228-.13l-.227-.132c-.075-.044-.149-.089-.222-.136s-.143-.094-.211-.143-.134-.1-.2-.154-.133-.1-.2-.153-.128-.1-.19-.157-.122-.107-.18-.161-.114-.11-.168-.166-.116-.11-.171-.166-.109-.112-.161-.169-.1-.115-.15-.173-.094-.117-.138-.176a7.686,7.686,0,0,1-.9-1.45,7.219,7.219,0,0,1-.515-1.486,7.731,7.731,0,0,1-.188-1.492,9.069,9.069,0,0,1,.079-1.469q.052-.365.134-.726t.2-.718q.113-.357.255-.71t.315-.7c.113-.231.239-.462.379-.691s.291-.454.453-.676.335-.439.517-.65.373-.416.57-.612a16.389,16.389,0,0,1,1.271-1.126,16.031,16.031,0,0,1,1.418-1.008,17,17,0,0,1,1.59-.889,19.374,19.374,0,0,1,1.788-.767l.243-.085q.122-.042.248-.082t.256-.078q.131-.038.268-.073t.266-.073q.137-.035.28-.066t.292-.06q.149-.029.3-.055c.095-.02.2-.037.3-.051s.219-.027.333-.037.23-.02.346-.029l.343-.025.391,0c.13,0,.26.005.393.012s.27.018.412.035.29.04.445.071c.073.012.146.024.219.039s.148.031.223.049.151.04.228.063.155.051.235.081l.23.085c.077.028.153.057.228.087s.148.062.219.1a1.832,1.832,0,0,1,.2.116q.1.06.2.123t.193.128q.1.065.187.132t.181.136q.071.067.138.135t.131.137q.064.069.126.14t.122.142a4.584,4.584,0,0,1,.359.542,4.012,4.012,0,0,1,.4.993c.039.154.067.3.089.443a6.941,6.941,0,0,1,.076.83,7.487,7.487,0,0,1-.016.773c-.018.25-.047.493-.081.732s-.076.474-.118.708-.1.464-.153.69-.114.451-.179.675-.135.449-.212.676-.16.457-.251.692Z" transform="translate(0 0)" fill="#7e5e45"/></g></svg>